<?xml version="1.0" standalone="no"?>
<!DOCTYPE svg PUBLIC "-//W3C//DTD SVG 20010904//EN"
 "http://www.w3.org/TR/2001/REC-SVG-20010904/DTD/svg10.dtd">
<svg version="1.0" xmlns="http://www.w3.org/2000/svg"
 width="300.000000pt" height="300.000000pt" viewBox="0 0 300.000000 300.000000"
 preserveAspectRatio="xMidYMid meet">
<metadata>
Created by potrace 1.11, written by Peter Selinger 2001-2013
</metadata>
<g transform="translate(0.000000,300.000000) scale(0.100000,-0.100000)"
fill="#000000" stroke="none">
<path d="M98 2402 c-38 -2 -58 -8 -62 -17 -8 -22 4 -45 23 -45 9 -1 34 -3 56
-6 79 -12 73 38 71 -549 l-1 -527 -33 -29 c-18 -17 -49 -31 -72 -35 -47 -8
-69 -34 -44 -55 11 -9 60 -12 177 -12 217 1 214 1 221 19 9 24 -9 41 -52 49
-50 9 -89 31 -104 58 -16 30 -19 993 -2 974 6 -7 32 -66 59 -132 26 -66 56
-138 66 -160 10 -22 73 -173 139 -335 67 -162 128 -308 135 -325 59 -136 65
-145 83 -145 26 0 32 9 80 125 23 55 123 294 222 530 100 237 182 435 184 442
11 55 14 -32 14 -395 l-1 -419 -31 -19 c-201 -119 -293 -409 -201 -636 117
-287 447 -410 731 -271 67 33 172 131 208 195 45 79 73 170 75 246 l1 32 105
0 c58 0 105 -3 105 -6 0 -3 -32 -60 -70 -126 -39 -67 -69 -123 -67 -125 5 -4
869 -5 873 0 5 4 -4 20 -229 410 l-207 357 0 260 0 260 -499 0 c-390 0 -500 3
-503 13 -4 10 -3 194 1 250 2 31 54 74 98 82 51 8 68 25 50 49 -11 15 -36 17
-236 18 -152 0 -226 -4 -231 -11 -3 -6 -87 -202 -185 -436 -98 -234 -181 -425
-184 -425 -4 0 -45 93 -93 208 -156 373 -263 627 -274 645 -9 16 -29 18 -175
20 -90 1 -189 1 -221 -1z m502 -431 c220 -525 219 -521 232 -521 15 0 9 -23
-29 -112 -34 -77 -53 -107 -53 -79 0 14 -419 1013 -440 1048 l-18 31 77 -1 78
0 153 -366z m910 363 c0 -3 -7 -19 -16 -37 -15 -28 -17 -80 -17 -424 -1 -315
-4 -393 -14 -394 -7 -1 -16 -2 -20 -3 -5 -1 -26 -5 -48 -9 -22 -5 -47 -10 -56
-13 -15 -4 -17 33 -16 439 l0 444 94 1 c51 0 93 -2 93 -4z"/>
</g>
</svg>
